/* XPM */
static char *e1c573b944af4261b9f9d8de8542de7agXFC23ywSKdXNN0w[] = {
/* columns rows colors chars-per-pixel */
"64 64 11 1 ",
"  c None",
". c #4D84C5",
"X c #4D85C5",
"o c #4E84C5",
"O c #4E85C5",
"+ c #4C86C4",
"@ c #4D84C6",
"# c #4D85C6",
"$ c #4D85C7",
"% c #4E84C6",
"& c #4E85C6",
/* pixels */
"                                                                ",
"                                                                ",
"                                                                ",
"                                                                ",
"                                                                ",
"                                                                ",
"                                                                ",
"                                           &&&&&&&&&            ",
"                                        &&&&&&&&&&&&&&          ",
"                                      &&&&&&   &&&&&&&          ",
"                                    &&&&&&&&   &&&&&&&          ",
"                                   &&&&&&&&&   .&&&&&&          ",
"                                  &&&&&&&&&&...&&&&&&           ",
"                                 &&&&&&&&&&&&&&&&&&&&           ",
"                                &&&&&&&&&&&&&&&&&&&&  &         ",
"                               &&&&&&&&&&&&&&&&&&&&&&&&         ",
"                               &&&&&&&&&&&&&&&&&&&&&&&&         ",
"                                 &&&&&&&&&&&&&&&&&&&&&&         ",
"                                     &&&&&&&&&&&&&&&&&&         ",
"                                       &&&&&&&&&&&&&&&&         ",
"                             &&          &&&&&&&&&&&&&&         ",
"                               &&&         &&&&&&&&&&&&         ",
"                                  &&&&   &&  &&&&&&&&&&         ",
"                                    &&&&&&&&  .&&&&&&&          ",
"                                       &&&&&   &&&&&&&          ",
"                           &&         &&&&&     .&&&&&          ",
"                             &&       &.&.&&     &&&&&          ",
"                               &&&   && &  &&     &&&           ",
"                                 &&&&&&&    &&     &&           ",
"                                   &&&&&     &                  ",
"                         &&       &&&&&       &                 ",
"                           &&      &&&&&       &                ",
"                             &&  && &  &        &               ",
"                              &&&&&&   &&                       ",
"                      &        &&&&     &&                      ",
"                       &&      &&&&      &                      ",
"                         &&& && & &&      &                     ",
"                           &&&&&   &       &                    ",
"                     &     &&&&    &&                           ",
"                      &&   &&&&     &                           ",
"                  &    && & & &&     &                          ",
"                   &    &&&&   &&                               ",
"                &   &   &&&     &     &                         ",
"                 &   &&& &&      &                              ",
"                  &  &&&   &     &                              ",
"        &&&&      &&&&&&   &                                    ",
"         &&&&  &  &&&  &    &                                   ",
"          &&&& &&&&&   &    &                                   ",
"          &&&&&&&                                               ",
"          &&&&& &   &                                           ",
"           &&&  &   &                                           ",
"           &&&                                                  ",
"           &&                                                   ",
"          &&                                                    ",
"          &                                                     ",
"                                                                ",
"                                                                ",
"                                                                ",
"                                                                ",
"                                                                ",
"                                                                ",
"                                                                ",
"                                                                ",
"                                                                "
};
