/* XPM */
static char *bb9eab7b92bb4d91b6655c7946f187c1n6Eb2YKluKZHS1hT[] = {
/* columns rows colors chars-per-pixel */
"64 64 104 2 ",
"   c None",
".  c gray8",
"X  c #161616",
"o  c #1B1B1B",
"O  c #1D1D1D",
"+  c #1E1E1E",
"@  c gray12",
"#  c gray13",
"$  c #232323",
"%  c #252525",
"&  c #272727",
"*  c #282828",
"=  c gray16",
"-  c gray17",
";  c gray18",
":  c gray19",
">  c gray20",
",  c #343434",
"<  c #353535",
"1  c #3E3E3E",
"2  c #3F3F3F",
"3  c gray25",
"4  c #414141",
"5  c gray26",
"6  c #444444",
"7  c gray27",
"8  c #464646",
"9  c gray28",
"0  c #484848",
"q  c #494949",
"w  c #4C4C4C",
"e  c gray30",
"r  c #4E4E4E",
"t  c #535353",
"y  c #555555",
"u  c #565656",
"i  c gray35",
"p  c #5A5A5A",
"a  c #5D5D5D",
"s  c #5F5F5F",
"d  c #606060",
"f  c gray39",
"g  c #656565",
"h  c gray40",
"j  c #686868",
"k  c #6C6C6C",
"l  c #727272",
"z  c gray45",
"x  c #747474",
"c  c #767676",
"v  c #777777",
"b  c #797979",
"n  c gray49",
"m  c gray50",
"M  c gray51",
"N  c gray53",
"B  c #888888",
"V  c #898989",
"C  c gray54",
"Z  c #8B8B8B",
"A  c #8D8D8D",
"S  c #929292",
"D  c #959595",
"F  c #989898",
"G  c gray60",
"H  c gray61",
"J  c #A0A0A0",
"K  c gray63",
"L  c gray64",
"P  c #A7A7A7",
"I  c #AAAAAA",
"U  c #ACACAC",
"Y  c #AFAFAF",
"T  c #B1B1B1",
"R  c gray71",
"E  c #B9B9B9",
"W  c #BCBCBC",
"Q  c gray",
"!  c #C0C0C0",
"~  c #C1C1C1",
"^  c gray76",
"/  c gray77",
"(  c #C8C8C8",
")  c gray79",
"_  c #CACACA",
"`  c #CBCBCB",
"'  c gray80",
"]  c #CDCDCD",
"[  c gray81",
"{  c #D0D0D0",
"}  c gray82",
"|  c #D2D2D2",
" . c LightGray",
".. c gray83",
"X. c #D8D8D8",
"o. c gray85",
"O. c gray87",
"+. c #E2E2E2",
"@. c #E6E6E6",
"#. c gray94",
"$. c #F3F3F3",
"%. c gray97",
"&. c #FBFBFB",
"*. c white",
/* pixels */
"                                                                          .                                                     ",
"                                    . . .                               . . .                                                   ",
"                                  . . . . .                           . . . .                                                   ",
"                                    . . . .             W W         . . . . .                                                   ",
"                                    . . . . +   W W W W W W W W W Y o . . . .                                                   ",
"                                    . . % z H W W W W W W W W W W W W P z .                                                     ",
"                                      # I E W W W W W W W W W W W W W W W v                                                     ",
"                                      T W W W E W T V n z n n W W W W W W W W                                                   ",
"                                    W W W W E I z + . . - . 2 t z H W W W W W W                                                 ",
"                                    W W W P > . + + . . . + . . . + t y W W W W                                                 ",
"                                    W P 0 . . V 3 . s N s # . . +.. > + + S W W W                                               ",
"                                  W T 0 # + . - % +.*.*.*.#.3 . . + + . . > I W W                                               ",
"                                  W W P P W s - { *.*.*.*.*.` 2 0 2 s T E W W W W                                               ",
"                                    W W W W E ] *.*.*.*.*.*.$.E W W W W W W W W                                                 ",
"                                    W W W W W O.r j *.*.*.*.@.W W W W W W W W W                                                 ",
"                                      W W W W { +.$.*.*.*.&./ W W W W W W W W                                                   ",
"                                          W W W o.&.*.$.@./ W W W W W W W                                                       ",
"                                          W ! W W W E W W W W W ! W W W W                                                       ",
"                                        W W W W W ! ! W W W W W W W W W W W                                                     ",
"                                      W W W W W W W ! W W W W W W W W W W W                                                     ",
"                                      W W W ! W W W ! W W W ! / W W ! W W W W                                                   ",
"                                    ! W ! / W W ! / ] ! W ! ! ! W W W W W W !                                                   ",
"                                    E W W W W W W W W W W W W W W W W / ! W W W                                                 ",
"                                  W ` ! ! ` / W W E ` W ` ` W W W ! W ! W ` / W W                                               ",
"                                  W W W ` W W E W W W ] / W { ! W ! W W W ! / W W                                               ",
"                                  ! W ! W W W ` W W / W W W ` ! W W ! W W W W W W W                                             ",
"                                W / W ! W ] ! ! W ! ! W ! W W / ` ! ` ! / W W { W W                                             ",
"                                W W W W ] ! ! W / W / / ` W / ! E W / ! W W W W W W                                             ",
"                                / W W W W W W W W { ` E W W / W W ! ] W / W W ! ! W W                                           ",
"                                W W W W W ! ! I ! W ! W ` ` W ! W ` K P T ! W W W W W                                           ",
"                              W W ` n H H V j s W ! W W / ! W W W E z s 0 M K / W W !                                           ",
"                              W W W ! 3 # - + . ! W ` / ! / / W ! A i > 2 s W ` ! ] W                                           ",
"                              W E ` ! g . . . . D E W W W ! ] W W y , . . y ! W W W !                                           ",
"                              { / W W I . . . . b ] W W W W W W ! + . . . n W ! / W W {                                         ",
"                              W W W / ! s . . . v ! ] W W / W W R . . . - T W W / W ! /                                         ",
"                              W W / W E T 2 . + T W W W W ! ! W H . . . N W W W W W W W                                         ",
"                              / W W W W W W I R W W ] / W W / ! ! 0 2 D E W ` W W W W W                                         ",
"                              W ! W ! W ! W W W W ! ! W W ` ../ W W E ` W W W ` ` W ! W                                         ",
"                              W W W ! W ` ! / W W W W / W W W W W W W ` W W W ! ! W W W                                         ",
"                              E W W ! W W ! W ! ! ! ` W W W / W ` ! W W ! ! W ! W / / W                                         ",
"                              ` W W W W W ! W W ` E W W W ` W / E ! W W W ! W W W ! W W W W i r W                               ",
"                              W ! / W W W ..W W ` W W ! / W W / ! ! ` ` ! W W ! W W / W W W g + W W S ;                         ",
"                              ! ` ! ! W W W W W W ] / W W W W W E ` E W / W W W W W W / W H 6 2 W W S - W W                     ",
"                              W E W W W / W W W W W W W W ! / ! W W ! W ! W W ! W W W W E A , y W W j t W W 2 s                 ",
"                              o.o.! ` W W / / ! ! ] ! ` W / ` W W W / W ` E W { W W / W W g % z W T 2 z W W # s                 ",
"                                W W W ! W W W W W ! W W ! W ! ! W ] W W / ! W E W / W W S 6 2 S W N t z W T . n W               ",
"                                W W / W W { ! / W ! W W W W W W W W W W W W ` ` W W W W v - i W E z % P W V y n W               ",
"                                W W W ! W ! ! ! ! W / / ` ! W E W W W ! ! W W W W / W H g 0 z W T > 2 W W 0 6 H                 ",
"                                  ! W / ` E W W W ! W W W ! ! ` ! W ! W ! W ! W W W W V s t I W z % s E T . y                   ",
"                                  W ! W / / ` W W ` W W W     W W W ! W W W W / / W   v s V E W 2 2 I W b d                     ",
"                                    W W ! ! ! !                     W ! ! W ! W / W             y                               ",
"                                    W W W W W W                       W W W W W W                                               ",
"                                    W W E ` / W                         W W ! W W                                               ",
"                                      W W W W W                         W E W H Y                                               ",
"                                      W / W W W W                       G z z z                                                 ",
"                                        W W n g g                       0 s 6 +                                                 ",
"                                        K P 1 i .                       6 2 t 3                                                 ",
"                                          j . 2 - y                     . - - 0                                                 ",
"                                          6 - - . 3                     . . . s                                                 ",
"                                            + . # %                     . . .                                                   ",
"                                            , . . .                     . . ;                                                   ",
"                                              . . .                     + + r                                                   ",
"                                              r . ;                                                                             ",
"                                                                                                                                "
};
