/* XPM */
static char *result[] = {
/* columns rows colors chars-per-pixel */
"64 64 224 2 ",
"   c None",
".  c #AC2E00",
"X  c #B52F01",
"o  c #AE3302",
"O  c #A93601",
"+  c #B33502",
"@  c #BA3502",
"#  c #B53B03",
"$  c #BB3D01",
"%  c #C13E01",
"&  c #9C5E00",
"*  c #9C5600",
"=  c #AA4A01",
"-  c #BD4203",
";  c #B34A01",
":  c #BE4905",
">  c #BB4408",
",  c #BF4A0A",
"<  c #B74004",
"1  c #A75601",
"2  c #A95802",
"3  c #B75602",
"4  c #9E6600",
"5  c #A36501",
"6  c #A46C01",
"7  c #AB6602",
"8  c #B46B03",
"9  c #A57301",
"0  c #AA7502",
"q  c #AD7B02",
"w  c #AC7A0C",
"e  c #B37E01",
"r  c #C34401",
"t  c #C94500",
"y  c #C54A03",
"u  c #CB4B01",
"i  c #C14709",
"p  c #C34C0A",
"a  c #C84F09",
"s  c #D24C00",
"d  c #C75106",
"f  c #CD5302",
"g  c #CE5B06",
"h  c #C6520C",
"j  c #CB540A",
"k  c #CC5B0B",
"l  c #C45805",
"z  c #D25503",
"x  c #D45B02",
"c  c #DA5D02",
"v  c #D15708",
"b  c #D35B0B",
"n  c #D95E0A",
"m  c #DB5700",
"M  c #C65411",
"N  c #CD5C12",
"B  c #C95611",
"V  c #D15F11",
"C  c #CA660D",
"Z  c #D66204",
"A  c #DB6402",
"S  c #DD6B04",
"D  c #D5620B",
"F  c #DA640B",
"G  c #D6690D",
"H  c #DB6B0A",
"J  c #D66806",
"K  c #DD720D",
"L  c #D97308",
"P  c #CE6113",
"I  c #D46414",
"U  c #DA6611",
"Y  c #D46B13",
"T  c #DB6B13",
"R  c #D36619",
"E  c #D56A1A",
"W  c #DA6D1A",
"Q  c #DD7314",
"!  c #DD741B",
"~  c #DD7A1B",
"^  c #D47217",
"/  c #C97D10",
"(  c #E26604",
")  c #E26C02",
"_  c #EA6D05",
"`  c #E26D0B",
"'  c #E36609",
"]  c #E37304",
"[  c #EA7502",
"{  c #E77A06",
"}  c #EB7D04",
"|  c #E3730A",
" . c #ED7409",
".. c #E57B0C",
"X. c #EA7B0C",
"o. c #F37B04",
"O. c #F17B08",
"+. c #E27414",
"@. c #E47B13",
"#. c #E97D14",
"$. c #E1751A",
"%. c #E47B1B",
"&. c #E87F1C",
"*. c #F07F11",
"=. c #DE7921",
"-. c #E47D21",
";. c #B28304",
":. c #B58C06",
">. c #BA8F0E",
",. c #BA9408",
"<. c #BD9D09",
"1. c #B69407",
"2. c #BF9E1A",
"3. c #BDA20A",
"4. c #BFA91F",
"5. c #C68A15",
"6. c #C89918",
"7. c #DA801E",
"8. c #ED8304",
"9. c #EC830C",
"0. c #ED890F",
"q. c #E7830E",
"w. c #F28304",
"e. c #FC8402",
"r. c #F48B04",
"t. c #FC8B03",
"y. c #F2850A",
"u. c #F38C0C",
"i. c #FC8A0C",
"p. c #F99204",
"a. c #FC9A04",
"s. c #F6940D",
"d. c #FA940B",
"f. c #FA9A0D",
"g. c #F69204",
"h. c #E78014",
"j. c #EB8314",
"k. c #ED8A13",
"l. c #E6811C",
"z. c #EA851A",
"x. c #ED8B1C",
"c. c #F18C12",
"v. c #F18D1C",
"b. c #F58815",
"n. c #EF921C",
"m. c #EF9819",
"M. c #F49313",
"N. c #FD9414",
"B. c #F69A14",
"V. c #FB9C14",
"C. c #F3931B",
"Z. c #FB961C",
"A. c #F69B19",
"S. c #FA9B1C",
"D. c #C3AC0B",
"F. c #CAAE0B",
"G. c #CBB50C",
"H. c #C5A51C",
"J. c #FBA316",
"K. c #F6A41D",
"L. c #FAA51C",
"P. c #FCA91D",
"I. c #DF8921",
"U. c #E68223",
"Y. c #EA8523",
"T. c #E28C22",
"R. c #EC8B24",
"E. c #EC8D29",
"W. c #E6832E",
"Q. c #F18F21",
"!. c #F08F28",
"~. c #E69426",
"^. c #ED9123",
"/. c #EE912B",
"(. c #EE9F2B",
"). c #F29324",
"_. c #F49A25",
"`. c #FA9B23",
"'. c #F3952B",
"]. c #F59B2C",
"[. c #F99D2C",
"{. c #ED933A",
"}. c #F59C31",
"|. c #F99E31",
" X c #F09732",
".X c #E98932",
"XX c #CAAD22",
"oX c #C8B322",
"OX c #EBA52E",
"+X c #F5A223",
"@X c #FBA223",
"#X c #F6AB24",
"$X c #FAAB23",
"%X c #F4A22C",
"&X c #FAA22D",
"*X c #F6AB2D",
"=X c #FAAB2B",
"-X c #FBB42B",
";X c #F9B32A",
":X c #F6A433",
">X c #FBA434",
",X c #F5AC33",
"<X c #FCAA35",
"1X c #FCA739",
"2X c #FDAA39",
"3X c #F5A93A",
"4X c #F5B135",
"5X c #FBB334",
"6X c #FBBC33",
"7X c #FCB53C",
"8X c #FCBC3B",
"9X c #D1C10D",
"0X c #FCC43B",
"qX c #FDC83E",
"wX c #F1A040",
"eX c #F7B541",
"rX c #FBC442",
"tX c #FCCB43",
"yX c #FCCF4A",
"uX c #FDD44A",
"iX c #FDD448",
"pX c #FEDC51",
"aX c #FDD750",
"sX c #FEE155",
/* pixels */
"                                                                                                                                ",
"                                                                                                                                ",
"                                                                    r.r.r.t.t.                                                  ",
"                                              S | { 9.r.g.      w.w.r.r.s.s.s.s.s.p.                                            ",
"                                          A J | 9.u.u.k.0.u.  r.} r.u.s.B.K.K.K.K.A.M.s.                                        ",
"                                    A J A J | 9.M.B.A.C.k.j.9.{ 8.u.M.V.P.$X;X;X;X#X$XK.s.g.                                    ",
"                              A x g g Z J L ..k.A.$X$X`.n.#.+.| 8.c.A.@X;X6X6X0X6X6X;X$XK.B.                                    ",
"                            A d d d g Z H K j.C.+X-X6X*X).&.H S 9.C.+X=X6X0XtXtXqX0X6X;X$XL.f.                                  ",
"                            g d d j k G Q @.x._.*X0XqX8X].l.F A @.n.#X5X0XtXiXuXiXqX6X;X$XJ.f.                                  ",
"                          S d d k C Y Q %.z.x._.5XtXiXrX:Xl.c x @.^.*X6XtXiXpXpXiXqX6X;XP.V.f.    t.t.                          ",
"                            d h C Y ~ l.T.^.).].<XtXpXyX,Xz.A x Q ^.*X8XtXpXsXsXiX0X-X$XA.M.r.t.e.i.N.Z.N.                      ",
"                          Z p h P ^ I.~.OX%X].[.<X8XuXuX4XR.F z Q R.*X8XtXpXsXpXtX6X$XA.c.9.} e.t.N.`.>X|.V.                    ",
"                  r.9.9.9.H y : k ^ T.OX,X,X%X].%X<XrXtX4Xx.F z K x.%X4XrXuXaXuX0X-XK.k...` o.t.N.@X<X2X1X[.B.                  ",
"                r.9.0.0.0...g # : P 7.OX4X,X%X].].%X,X6X*Xx.F z K z._.:X7XrXrX8X;X+Xc...I ` e.d.P.5X7X7X2X>X`.a.                ",
"              w.9.9.c.c.k.j.K : + , Y T.OX,X%X]._.).].*X#Xx.H z H l.).].3X7X4X+XA.k.X.D n o.d.L.-X8X8X7X<X&X`.f.                ",
"              { 9.0.c.C.C.x.@.D # o h ^ ~.%X]._.).^.Q._.+Xx.H z H h.x.).%X,X_.k.9.9.H b  .t.J.-XqXrX8X7X<X&XA.p.                ",
"            | | ..j.v._._._.R.Q j o + h ! ^._.).R.x.z.x.m.k.H z H @.z.^._._.z.| { | b ' e.V.-X0XtX0X8X5X&X`.M.r.a.              ",
"          ` H H ..j.v._.&X>X[.R.Q h o + N ~ R.x.x.z.j.j.k.9.H f J ..#.z.x.z...S | D n o.f.#X8XrXqX8X5X<X`.M.r.r.p.              ",
"          D J H K h.x.].>X2X>X[.R.Q h o # P $.z.l.j.X.......J f A | ..h.j.@.H ] J v [ u._.3XeX8X8X5X&XZ.0.} 8.r.u.p.            ",
"        n g Z J Q l.R.[.>X2X2X>X].R.! h o > I +.@.@...] | | A f A S ] | | H J S v ' y.R.{.3X3X<X=X`.j.} ] } u.A.`.Z.i.          ",
"        j d g G Q z.).&X2X2X>X>X&X).R.! h o > D T | ] ) S S A f Z S S S A Z A v c } z..X{. X]._.c.| ) ] 0.+X5X5X<X[.N.          ",
"        d d k G ~ R.].>X2X2X>X&X].).R.l.Q p o : D H S A A A x f x A A A g x x z [ ..-.W.E.x.k...) ] 9.+X6X0X8X5X&X`.i.          ",
"      v y y h I ! Y.].2X2X>X>X[.).Q.x.l.%.Y : o : g x x x z f u f z z f f z f A | T $.#.j...] ) ..n.5XqXqX6X=X@XZ.u.w.          ",
"      j > > p k I ~ E.}.:X:X].'.).x.z.#.+.T k > o : d f f f f y u f f y f f x S A H | | ] ) | j._.5X6X6X$XA.M.u.w.} w.          ",
"      a - > p h N R ! -.E.E.E.R.z.z.j.@.| H D j < # y y y y y r r r y y y u x z x A S S [ 9.C.`.`.@XA.M.y.[ _ ) ) [             ",
"        > > > p h N P R E ! %.%.$.%...| ] S Z g y < # - r r $ $ - - - r r f f f x A ) } u.M.C.M.u.8.[ ) m z z c ( O.i.          ",
"        y # # # # > , M B N I E T Q H H S A A z a i $ $ $ # ; 8 7 5 8 3 r y y f A [ w.u.u.y.} [ ) A z s u v F +.b.b.i.w.        ",
"        y r - # + + o o + # > , h k D D Z A x z u r - # ; 2 q :.9 4 1.3.3 % y z S [ } | ) ) A c x x F H $.U.E._.`.A.c.9.[       ",
"      u u u f v v v j p > + o . o + # > y y u u y r # 1 9 9 q e 5 6 <.D.;.- r f x A A A ( ) ] { 9.k.C._.%X4X5X5X=XK.M.8.[       ",
"    t r u z x F T +.&.&.&.$.T V a - # + o o # # - $ # 0 0 6 0 0 5 ;.3.<.D.8 % u z A [ w.r.p.f.V.S.@X=X5X0XqXqX6X;XK.M.9.{ [     ",
"    % r u v F T $.-.Y./.].|.>X].R.%.F j y < # # # + ; ;.0 6 9 6 q <.F.G.9X,.< u A o.t.a.a.f.f.V.S.@X=X-X6X6X6X-X$XB.u.8.{ [     ",
"    $ r u v F Q -.E./.}.:X1X2X>X].x.@.H x f u r $ X = q 6 6 0 ;.1.<.F.F.G.<.: u A [ w.r.r.p.p.f.f.B.B.V.J.J.J.J.f.u.w.} ] [     ",
"    $ r u v F $.Y./.}.:X>X>X2X>X[.v.j.| A x f r % ; 5 6 0 ;.:.1.:.:.1.,.<.,.3 t x ) [ } 8.8.r.r.u.u.s.B.J.P.P.L.B.u.8.} ] [     ",
"    $ r u v F $.R.'.}.:X>X2X2X>X[.v.#.| A x z t ; 6 0 q :.:.;.0 6 6 0 q :.1.3 t x ( _ [ } } 8.8.9.0.C.+X6X0X0X5X+Xn.X.[ [ [     ",
"    $ r u v F $.Y./.}.}.:X}.}.'.R.j.| S A x u ; 5 0 ;.;.:.q 5 5 9 0 6 5 9 7 < r u c ( _  . .X.X.X.9.v.+X5X0X0X5X%Xx.@.] ] [     ",
"    $ r u v F Q %.U.U.Y.z.z.l.#.| S A z y r - 2 6 q ;.;.q 6 5 5 6 e ;.0 1 @ r y u u f z A ' _  . .X.*.v.`.=X=X%X^.l.| ` ) [     ",
"    % r u v b D G J J J H H J A z y - $ - r / H.>.;.q q 6 & & 6 9 9 q 2 @ % r u z x x f y y u z c ( ` X.j.v.v.z.#.+.` S )       ",
"    % - r u f f f f z x x z y < + # : g A A 6.oXXXH.>.9 * O O = 1 1 = + $ r u f z A S S J v y $ $ r z c H ` | +.` H F A (       ",
"      $ r r y y u f f f y $ + # h U &.j...( L 2.4.XXoXw O @ + X + + @ % r r f x x A S ] ..@.+.U h > - r f v b n F n x c _       ",
"      $ $ - r r r r - < > , N ! E.].).x.#.| ' K 5.6.oX5.% % $ $ $ r r r u y y x A A S | ..j.z.x.U.=.E N j j j v v v x (         ",
"        $ $ $ $ $ $ > h P ! Y.].:X|.).x.z.j.#.' c l C H u r r $ - y u u f z y u A A S | ..j.x.Q.).'.].'.Y.! U V b n             ",
"          $ $ $ - a N W -.E.].|.}.].].].).Q.j.| z $ m ( v u u r r f z z x A x r f A A S ..j.x.).].[.>X>X>X).x.#.Q               ",
"            r r a b T %.Y.E.'.'.].>X>X>X[.).b.` - f | ` c x x y y z x c A S ' v < f A A ] ..z.).].>X2X2X>X[._.v.j.+.            ",
"          s r u v D T %.U.R.E.'.|.>X2X>X>X[.z.y - | #.` A A A y y x A A S ] | ` d # d Z A ] ..x.'.[.>X2X>X@XS.M.k.@.            ",
"          u u u v b T $.&.Y.!.].>X>X2X2X>X'.V # H v.z.| | | S f y A ] ] ] | ....T p + d Z A ] 9.v.].&X&X&X`.A.M.c.@.            ",
"          u u u z b F T %.Y.!.].>X:X>X>X|.! # j z.'.x...j.#.| d y H #.X...j.j.j.l.Y # o d x A ] 9.x.)._._.C.M.c.9.+.            ",
"            r u u v D T +.l.R.'.].].}.'.-.> > $.].[.z.j.).z.+.j y +.x.x.j.j.x.v.v.l.N + + d x A S ..j.x.x.j.0.9...+.            ",
"            t r u f v F T %.Y.R.Y.Y.U.-.p + I E.>X[.x.).[.v.%.h y $.).).x.x.v.).).).%.h o # h x Z A S | @.....| L               ",
"              r r u f x H $.%.%.! ! W B + p -.}.>X].Q.[.&X).$.h p $.'.].).Q.).'.].[.^.T > . # d j z x A J S S S `               ",
"              t r r u v F U T E R I M + > E E.:X:X'.'.>X&X).%.h , ! '.|.'.).).'.].:X:XY.b # + # p u f z z x Z A                 ",
"                r r u f v b N N N h # + M =.'.:X|.'.[.:X].Q.$.p : W /.}.'.).).'.'.|.2X}.$.u # + - i r u u f z                   ",
"                  r r u a a a h a - + p I U.'.|.[.].}.|.'.Y.! , > E Y.].'.).).'.'.}.1X>XY.D r $ $ - - r y u m                   ",
"                    r r r i p i - # r j W U.'.].].].].'.E.&.I > # P -.E./.E.E.'.'.'.}.'.Y.T f r r - $ r r s                     ",
"                      u r r - - $ % a b T &.Y.'.'.'.'.R.U.! N # # N ! U.Y.Y.Y.R.R.Y.Y.U.%.U v u t   r t                         ",
"                          u       r u v U +.%.Y.R.R.Y.-.%.T j # + h I $.-.-.-.-.%.$.+.T U b u u u                               ",
"                                  u u f b U T $.%.%.$.! W I a # + p N T W W W T T U D b v u u u s                               ",
"                                  u u u f v b F U U U U V j i # # r j b I I b b v v f u u u u u                                 ",
"                                    u u u u f v v v v b j p - $ $ $ p d j j f u u u u u u u u                                   ",
"                                    s u u u u u u u u a p - $ t   $ r r y u u u u u u u u s                                     ",
"                                        u u u u u u u r - $ r     s r r r r r t u u u s                                         ",
"                                            s u u u u r r r           t r u u u u                                               ",
"                                                  s u u                                                                         ",
"                                                                                                                                ",
"                                                                                                                                "
};
